<svg xmlns="http://www.w3.org/2000/svg" width="24" height="24" viewBox="0 0 24 24">
  <g id="icon_location" transform="translate(-861 -519)">
    <path id="pin_drop_FILL0_wght400_GRAD0_opsz48" d="M16,15.64a15.924,15.924,0,0,0,3.2-3.23,5.149,5.149,0,0,0,1.08-2.89,4.2,4.2,0,0,0-.438-2,4.308,4.308,0,0,0-1.08-1.34,4.106,4.106,0,0,0-1.4-.75A4.722,4.722,0,0,0,16,5.2a4.722,4.722,0,0,0-1.365.23,4.106,4.106,0,0,0-1.4.75,4.308,4.308,0,0,0-1.08,1.34,4.2,4.2,0,0,0-.438,2,5.149,5.149,0,0,0,1.08,2.89A15.924,15.924,0,0,0,16,15.64Zm0,1.52a18.952,18.952,0,0,1-4.145-3.94A6.333,6.333,0,0,1,10.5,9.52a5.363,5.363,0,0,1,3.565-5.17,5.525,5.525,0,0,1,3.87,0A5.342,5.342,0,0,1,21.5,9.52a6.333,6.333,0,0,1-1.355,3.7A18.952,18.952,0,0,1,16,17.16Zm0-6.36a1.387,1.387,0,0,0,1.008-.41,1.382,1.382,0,0,0,0-1.98,1.445,1.445,0,0,0-2.017,0,1.382,1.382,0,0,0,0,1.98A1.387,1.387,0,0,0,16,10.8ZM10.5,20V18.8h11V20ZM16,9.52Z" transform="translate(857.5 519)" fill="#44173e"/>
    <rect id="Rectangle_1986" data-name="Rectangle 1986" width="24" height="24" transform="translate(861 519)" fill="none"/>
  </g>
</svg>
