<svg id="icon-logout" xmlns="http://www.w3.org/2000/svg" width="24" height="24" viewBox="0 0 24 24">
  <rect id="container" width="24" height="24" fill="none"/>
  <path id="default" d="M5.522,17.935l-4.5-1.51A1.5,1.5,0,0,1,0,15V1.5A1.509,1.509,0,0,1,1.5,0H9.788a2.249,2.249,0,0,1,2.247,2.252V3.781a.753.753,0,1,1-1.506,0V2.252A.746.746,0,0,0,9.788,1.5h-3.5l.226.08a1.531,1.531,0,0,1,1.024,1.43V14.253H9.788a.742.742,0,0,0,.741-.751V11.478a.747.747,0,0,1,.221-.531.74.74,0,0,1,.5-.214.767.767,0,0,1,.519.214.746.746,0,0,1,.22.531V13.5A2.249,2.249,0,0,1,9.743,15.75H7.493V16.5A1.508,1.508,0,0,1,5.985,18,1.627,1.627,0,0,1,5.522,17.935Zm7.38-6.3a1.126,1.126,0,0,1,0-1.586l1.27-1.273H10.137a1.124,1.124,0,1,1,0-2.248h4l-1.273-1.26a1.12,1.12,0,0,1,.822-1.919,1.118,1.118,0,0,1,.8.364L17.673,6.9a1.3,1.3,0,0,1,.234.371A1.353,1.353,0,0,1,18,7.675a1.144,1.144,0,0,1-.092.426.842.842,0,0,1-.224.349L14.5,11.634a1.123,1.123,0,0,1-1.6,0Zm-1.666-.9h0Zm.032,0h.015Z" transform="translate(3 3)" fill="#fff"/>
</svg>
