<svg id="icon-ig" xmlns="http://www.w3.org/2000/svg" width="40" height="40" viewBox="0 0 40 40">
  <g id="Group_4" data-name="Group 4">
    <path id="Path_6790" data-name="Path 6790" d="M20,0h0A20,20,0,0,0,0,20H0A20,20,0,0,0,20,40h0A20,20,0,0,0,40,20h0A20,20,0,0,0,20,0ZM32.922,25.36a9.515,9.515,0,0,1-.6,3.155,6.641,6.641,0,0,1-3.8,3.8,9.535,9.535,0,0,1-3.155.6C23.974,32.985,23.531,33,20,33s-3.973-.015-5.36-.078a9.546,9.546,0,0,1-3.155-.6,6.641,6.641,0,0,1-3.8-3.8,9.538,9.538,0,0,1-.6-3.155C7.015,23.973,7,23.531,7,20s.015-3.973.078-5.36a9.543,9.543,0,0,1,.6-3.155,6.646,6.646,0,0,1,3.8-3.8,9.54,9.54,0,0,1,3.155-.605C16.027,7.015,16.469,7,20,7s3.973.015,5.36.079a9.546,9.546,0,0,1,3.155.6,6.646,6.646,0,0,1,3.8,3.8,9.515,9.515,0,0,1,.6,3.155C32.985,16.027,33,16.469,33,20S32.985,23.973,32.922,25.36Z" fill="#fefbfc"/>
    <path id="Path_6791" data-name="Path 6791" d="M30.134,12.333a4.3,4.3,0,0,0-2.467-2.467,7.174,7.174,0,0,0-2.414-.447c-1.371-.063-1.782-.077-5.253-.077s-3.883.014-5.253.076a7.193,7.193,0,0,0-2.414.448,4.3,4.3,0,0,0-2.468,2.467,7.232,7.232,0,0,0-.447,2.414c-.062,1.371-.076,1.782-.076,5.253s.014,3.882.076,5.254a7.224,7.224,0,0,0,.447,2.413,4.31,4.31,0,0,0,2.468,2.468,7.2,7.2,0,0,0,2.414.447c1.37.063,1.781.076,5.253.076s3.882-.013,5.253-.076a7.206,7.206,0,0,0,2.414-.447,4.306,4.306,0,0,0,2.467-2.468,7.191,7.191,0,0,0,.448-2.413c.062-1.372.075-1.783.075-5.254s-.013-3.882-.075-5.253A7.2,7.2,0,0,0,30.134,12.333ZM20,26.675A6.675,6.675,0,1,1,26.675,20,6.675,6.675,0,0,1,20,26.675Zm6.939-12.054a1.56,1.56,0,1,1,1.56-1.56A1.561,1.561,0,0,1,26.939,14.621Z" fill="#fefbfc"/>
    <path id="Path_6792" data-name="Path 6792" d="M20,15.667A4.333,4.333,0,1,0,24.333,20,4.333,4.333,0,0,0,20,15.667Z" fill="#fefbfc"/>
  </g>
</svg>
