<svg id="safeyou-logo" xmlns="http://www.w3.org/2000/svg" width="140" height="21" viewBox="0 0 140 21">
  <g id="You" transform="translate(79.288)">
    <path id="Y" d="M316.928,159.325v7.193h-4.6v-7.251l-7.7-13.052h3.46a2.509,2.509,0,0,1,2.159,1.247l4.576,7.774,5.31-9.02h4.516Z" transform="translate(-304.632 -145.867)" fill="#e9486e"/>
    <path id="O" d="M368.163,155.986c0-.016,0-.032,0-.047h0c0-.093-.006-.184-.008-.277s0-.175-.007-.261-.013-.179-.019-.269-.013-.191-.022-.285c-.007-.074-.018-.147-.027-.221-.013-.108-.025-.217-.041-.324-.008-.053-.018-.1-.027-.158-.021-.126-.041-.251-.065-.375-.007-.031-.014-.06-.021-.091-.03-.145-.062-.289-.1-.431v0a10.009,10.009,0,0,0-2.763-4.784,11.052,11.052,0,0,0-7.776-2.974h0a11.137,11.137,0,0,0-7.406,2.634,10.027,10.027,0,0,0-3.244,5.611c0,.011-.006.022-.008.034-.028.139-.052.281-.074.423-.006.037-.014.073-.019.11-.018.119-.031.24-.045.361-.007.062-.016.122-.022.184-.01.1-.016.205-.023.309-.006.082-.014.163-.018.246s-.005.182-.008.273-.007.177-.007.266h0c0,.016,0,.032,0,.047,0,6.056,4.62,10.491,10.859,10.5h.033C363.543,166.477,368.163,162.042,368.163,155.986Zm-10.875,6.5a6.132,6.132,0,0,1-6.219-6.5,7.1,7.1,0,0,1,.7-3.162c.027-.054.056-.106.084-.159q.091-.173.192-.337c.032-.053.064-.105.1-.156q.128-.194.268-.377c.016-.021.031-.043.047-.064.111-.14.229-.272.351-.4.036-.038.074-.074.111-.11.094-.094.191-.184.292-.271.04-.035.08-.07.121-.1.131-.107.266-.21.406-.306l.022-.016c.15-.1.305-.193.465-.28.042-.023.086-.044.128-.066q.186-.1.379-.179l.138-.058a6.2,6.2,0,0,1,1.073-.319c.05-.01.1-.018.152-.027q.214-.038.434-.062l.163-.017c.195-.017.391-.028.592-.028s.4.011.591.028l.163.017q.22.024.434.062c.051.009.1.017.153.027a6.2,6.2,0,0,1,1.072.319l.138.058q.194.083.379.179c.043.022.086.043.128.066.159.087.315.179.465.28l.022.016c.14.1.275.2.406.306.041.034.081.069.121.1.1.087.2.177.292.271.037.037.075.073.111.11.123.128.24.26.351.4.016.021.031.043.047.064q.141.183.268.377c.034.051.065.1.1.156q.1.164.191.337c.028.053.057.1.084.159a7.1,7.1,0,0,1,.7,3.162A6.132,6.132,0,0,1,357.288,162.483Z" transform="translate(-327.376 -145.487)" fill="#e9486e"/>
    <path id="U" d="M398.133,157.586v-11.37h2.048a2.58,2.58,0,0,1,2.552,2.607v8.589c0,3.857,1.647,5.453,4.43,5.453,2.811,0,4.429-1.6,4.429-5.453v-11.2h4.544v11.37c0,5.975-3.351,9.282-9,9.282s-9-3.307-9-9.282" transform="translate(-355.424 -145.867)" fill="#e9486e"/>
  </g>
  <g id="Safe">
    <path id="Path_6008" data-name="Path 6008" d="M275.246,121.9l1.562-3.539a11.529,11.529,0,0,0,6.56,2.117c2.726,0,3.833-.928,3.833-2.176,0-3.8-11.557-1.189-11.557-8.73,0-3.452,2.726-6.323,8.378-6.323a13.333,13.333,0,0,1,6.669,1.655.327.327,0,0,1,.128.4l-.246.617a2.782,2.782,0,0,1-3.471,1.613,10.083,10.083,0,0,0-3.11-.513c-2.726,0-3.776,1.044-3.776,2.32,0,3.742,11.557,1.16,11.557,8.614,0,3.394-2.754,6.295-8.433,6.295a13.956,13.956,0,0,1-8.094-2.349" transform="translate(-275.246 -103.25)" fill="#952d76"/>
    <path id="Path_6009" data-name="Path 6009" d="M306.916,124.144l8.6-20.3h4.544l8.576,20.3h-4.969l-6.049-14.5L312.3,122.226a3.111,3.111,0,0,1-2.857,1.918Z" transform="translate(-289.044 -103.491)" fill="#952d76"/>
    <path id="Path_6010" data-name="Path 6010" d="M348.968,103.84v20.3h4.6v-5.66h0v-6.4h0V107.61h7.269a3.188,3.188,0,0,0,3.154-3.222v-.549Z" transform="translate(-307.281 -103.491)" fill="#952d76"/>
    <rect id="Rectangle_1891" data-name="Rectangle 1891" width="5.563" height="3.771" transform="translate(48.732 8.434)" fill="#952d76"/>
    <path id="Path_6011" data-name="Path 6011" d="M384.946,120.373v-4.7h0V112.02h0v-4.408h7.3a3.188,3.188,0,0,0,3.154-3.222v-.549H380.374v20.3h15.392v-3.771Z" transform="translate(-320.935 -103.491)" fill="#952d76"/>
    <rect id="Rectangle_1892" data-name="Rectangle 1892" width="5.563" height="3.771" transform="translate(66.506 8.434)" fill="#952d76"/>
  </g>
</svg>
